<svg width="96" height="28" viewBox="0 0 96 28" fill="none" xmlns="http://www.w3.org/2000/svg">
<g clip-path="url(#clip0_5_2)">
<path d="M0.246094 16.8438C0.0820312 16.8438 0 16.7578 0 16.5859V15.6484C0 15.4844 0.0820312 15.4023 0.246094 15.4023H1.46484V12.7422C1.46484 12.625 1.48047 12.5078 1.51172 12.3906C1.55078 12.2734 1.64844 12.1836 1.80469 12.1211L8.27344 9.73047C8.57031 9.62109 8.81641 9.53906 9.01172 9.48438C9.20703 9.42969 9.37891 9.40234 9.52734 9.40234C9.58203 9.40234 9.64062 9.41406 9.70312 9.4375C9.77344 9.45312 9.83594 9.48438 9.89062 9.53125C9.95312 9.57812 10.0039 9.64453 10.043 9.73047C10.082 9.80859 10.1016 9.90625 10.1016 10.0234V15.4023H12.2109C12.375 15.4023 12.457 15.4844 12.457 15.6484V16.5859C12.457 16.7578 12.375 16.8438 12.2109 16.8438H10.1016V21.5664C10.1016 22.1211 10.1914 22.5117 10.3711 22.7383C10.5586 22.9648 10.8438 23.0781 11.2266 23.0781C11.3125 23.0781 11.4023 23.0703 11.4961 23.0547C11.5898 23.0312 11.6758 23.0117 11.7539 22.9961C11.8398 22.9727 11.918 22.9531 11.9883 22.9375C12.0586 22.9141 12.1172 22.9023 12.1641 22.9023C12.25 22.9023 12.293 22.9531 12.293 23.0547V23.957C12.293 24.1133 12.2617 24.2188 12.1992 24.2734C12.1367 24.3281 12.082 24.3633 12.0352 24.3789C11.7383 24.5039 11.3867 24.6289 10.9805 24.7539C10.582 24.8789 10.1484 24.9883 9.67969 25.082C9.21875 25.1836 8.73047 25.2617 8.21484 25.3164C7.69922 25.3789 7.18359 25.4102 6.66797 25.4102C5.92578 25.4102 5.23438 25.3711 4.59375 25.293C3.96094 25.2227 3.41016 25.0547 2.94141 24.7891C2.48047 24.5234 2.11719 24.1289 1.85156 23.6055C1.59375 23.082 1.46484 22.3711 1.46484 21.4727V16.8438H0.246094ZM9.10547 11.0781C9.10547 10.9219 9.08594 10.7969 9.04688 10.7031C9.01562 10.6016 8.93359 10.5508 8.80078 10.5508C8.75391 10.5508 8.69141 10.5586 8.61328 10.5742C8.54297 10.5898 8.46484 10.6172 8.37891 10.6562L8.19141 10.7383V21.8711C8.19141 22.2227 8.25 22.5078 8.36719 22.7266C8.48438 22.9453 8.62891 23.1172 8.80078 23.2422C8.97266 23.3672 9.15625 23.4531 9.35156 23.5C9.54688 23.5391 9.72266 23.5586 9.87891 23.5586C9.76172 23.4648 9.65234 23.3711 9.55078 23.2773C9.45703 23.1758 9.375 23.0625 9.30469 22.9375C9.24219 22.8047 9.19141 22.6602 9.15234 22.5039C9.12109 22.3398 9.10547 22.1445 9.10547 21.918V11.0781ZM19.1484 25C18.7266 25 18.3008 24.9727 17.8711 24.918C17.4492 24.8633 17.043 24.7773 16.6523 24.6602C16.2695 24.5352 15.9102 24.375 15.5742 24.1797C15.2383 23.9844 14.9453 23.7422 14.6953 23.4531C14.4531 23.1641 14.2617 22.8242 14.1211 22.4336C13.9805 22.043 13.9102 21.5938 13.9102 21.0859C13.9102 20.4062 14.0391 19.8242 14.2969 19.3398C14.5547 18.8555 14.8984 18.4531 15.3281 18.1328C15.7656 17.8125 16.2656 17.5664 16.8281 17.3945C17.3906 17.2227 17.9727 17.1133 18.5742 17.0664V16.2578C18.5742 15.9531 18.5352 15.7109 18.457 15.5312C18.3789 15.3516 18.2773 15.2188 18.1523 15.1328C18.0352 15.0391 17.9023 14.9805 17.7539 14.957C17.6133 14.9258 17.4766 14.9102 17.3438 14.9102C17.1875 14.9102 17.0195 14.9336 16.8398 14.9805C16.668 15.0273 16.5 15.0859 16.3359 15.1562C16.1719 15.2188 16.0156 15.2891 15.8672 15.3672C15.7188 15.4453 15.5938 15.5156 15.4922 15.5781C15.4453 15.6094 15.4023 15.6367 15.3633 15.6602C15.3242 15.6836 15.2852 15.6953 15.2461 15.6953C15.1758 15.6953 15.1094 15.6445 15.0469 15.543L14.6484 14.9102C14.6094 14.8555 14.5898 14.7969 14.5898 14.7344C14.5898 14.6719 14.6133 14.6172 14.6602 14.5703C14.7148 14.5234 14.7656 14.4844 14.8125 14.4531C15.0703 14.2734 15.3984 14.0898 15.7969 13.9023C16.1953 13.7148 16.6406 13.5469 17.1328 13.3984C17.6328 13.25 18.1719 13.1289 18.75 13.0352C19.3281 12.9414 19.9258 12.8945 20.543 12.8945C21.1289 12.8945 21.6992 12.9141 22.2539 12.9531C22.8164 12.9922 23.3438 13.0781 23.8359 13.2109C24.3359 13.3359 24.7891 13.5195 25.1953 13.7617C25.6094 13.9961 25.9648 14.3086 26.2617 14.6992C26.5664 15.0898 26.8008 15.5703 26.9648 16.1406C27.1289 16.7109 27.2109 17.3945 27.2109 18.1914V23.418C27.2109 23.6758 27.1875 23.9062 27.1406 24.1094C27.0938 24.3047 27.0039 24.4688 26.8711 24.6016C26.7383 24.7344 26.5547 24.8359 26.3203 24.9062C26.0859 24.9688 25.7812 25 25.4062 25H19.1484ZM18.5742 18.5547C18.0117 18.5547 17.5391 18.625 17.1562 18.7656C16.7734 18.9062 16.4648 19.0938 16.2305 19.3281C15.9961 19.5625 15.8281 19.8359 15.7266 20.1484C15.625 20.4531 15.5742 20.7695 15.5742 21.0977C15.5742 21.4258 15.625 21.7383 15.7266 22.0352C15.8281 22.3242 15.9961 22.5781 16.2305 22.7969C16.4648 23.0156 16.7734 23.1875 17.1562 23.3125C17.5391 23.4375 18.0117 23.5 18.5742 23.5V18.5547ZM25.3008 24.0156C25.4883 24.0156 25.6406 24.0117 25.7578 24.0039C25.875 23.9883 25.9688 23.957 26.0391 23.9102C26.1094 23.8555 26.1562 23.7812 26.1797 23.6875C26.2031 23.5859 26.2148 23.4453 26.2148 23.2656V17.9336C26.2148 17.3008 26.1484 16.7695 26.0156 16.3398C25.8828 15.9023 25.7148 15.5469 25.5117 15.2734C25.3164 14.9922 25.1016 14.7812 24.8672 14.6406C24.6328 14.4922 24.4141 14.3828 24.2109 14.3125C24.3047 14.4141 24.4141 14.5586 24.5391 14.7461C24.6719 14.9336 24.793 15.1719 24.9023 15.4609C25.0117 15.75 25.1055 16.0977 25.1836 16.5039C25.2617 16.9023 25.3008 17.3633 25.3008 17.8867V24.0156ZM37.7227 12.5898C38.2227 12.5898 38.7227 12.6211 39.2227 12.6836C39.7227 12.7383 40.1953 12.8125 40.6406 12.9062C41.0938 13 41.5039 13.1055 41.8711 13.2227C42.2461 13.332 42.5508 13.4414 42.7852 13.5508C42.8242 13.5664 42.8633 13.5898 42.9023 13.6211C42.9492 13.6523 42.9727 13.7109 42.9727 13.7969C42.9727 13.8203 42.9688 13.8516 42.9609 13.8906C42.9531 13.9297 42.9453 13.9688 42.9375 14.0078L42.7969 14.6992C42.7812 14.793 42.7578 14.8516 42.7266 14.875C42.7031 14.8906 42.6797 14.8984 42.6562 14.8984C42.6172 14.8984 42.543 14.8867 42.4336 14.8633C42.3242 14.8398 42.207 14.8281 42.082 14.8281C41.6367 14.8281 41.2852 14.9492 41.0273 15.1914C40.7695 15.4258 40.6055 15.8398 40.5352 16.4336L39.8789 21.9062C39.8164 22.3906 39.6523 22.8438 39.3867 23.2656C39.1289 23.6875 38.7539 24.0586 38.2617 24.3789C37.7695 24.6992 37.1602 24.9492 36.4336 25.1289C35.7148 25.3164 34.8711 25.4102 33.9023 25.4102C33.293 25.4102 32.6992 25.3711 32.1211 25.293C31.543 25.2227 31.0078 25.1328 30.5156 25.0234C30.0312 24.9219 29.6055 24.8203 29.2383 24.7188C28.8789 24.6094 28.6094 24.5234 28.4297 24.4609C28.3672 24.4453 28.3203 24.4258 28.2891 24.4023C28.25 24.3711 28.2305 24.3242 28.2305 24.2617C28.2305 24.2305 28.2344 24.1953 28.2422 24.1562C28.25 24.1172 28.2617 24.0703 28.2773 24.0156L28.418 23.3594C28.4336 23.2969 28.4609 23.2461 28.5 23.207C28.5391 23.168 28.6094 23.1484 28.7109 23.1484C28.9688 23.1484 29.2266 23.1367 29.4844 23.1133C29.75 23.082 29.9922 23.0078 30.2109 22.8906C30.4375 22.7734 30.6328 22.5938 30.7969 22.3516C30.9688 22.1094 31.0859 21.7695 31.1484 21.332L31.9688 15.6836C32.0547 15.0898 32.2734 14.5938 32.625 14.1953C32.9766 13.7969 33.4102 13.4805 33.9258 13.2461C34.4492 13.0039 35.0391 12.8359 35.6953 12.7422C36.3516 12.6406 37.0273 12.5898 37.7227 12.5898ZM35.4961 24.3203C36.5742 24.1953 37.3906 23.8945 37.9453 23.418C38.5078 22.9336 38.832 22.332 38.918 21.6133L39.5391 16.4336C39.6094 15.8398 39.7812 15.3477 40.0547 14.957C40.3359 14.5664 40.7188 14.3281 41.2031 14.2422C40.7656 14.2422 40.3906 14.3008 40.0781 14.418C39.7734 14.5352 39.5156 14.6953 39.3047 14.8984C39.0938 15.0938 38.9297 15.3242 38.8125 15.5898C38.7031 15.8555 38.6328 16.1367 38.6016 16.4336L37.9805 21.6133C37.9414 21.918 37.8594 22.2109 37.7344 22.4922C37.6172 22.7734 37.457 23.0352 37.2539 23.2773C37.0508 23.5117 36.8008 23.7227 36.5039 23.9102C36.2148 24.0898 35.8789 24.2266 35.4961 24.3203ZM43.9922 7.43359C43.9922 7.16797 44.0156 6.93359 44.0625 6.73047C44.1094 6.51953 44.1992 6.34766 44.332 6.21484C44.4648 6.08203 44.6484 5.98047 44.8828 5.91016C45.1172 5.83984 45.4219 5.80469 45.7969 5.80469H50.9297C51.2891 5.80469 51.5781 5.83984 51.7969 5.91016C52.0156 5.98047 52.1875 6.08203 52.3125 6.21484C52.4375 6.34766 52.5195 6.51953 52.5586 6.73047C52.6055 6.93359 52.6289 7.16797 52.6289 7.43359V15.8945L55.4414 13.1055C55.5273 13.0195 55.6094 12.9609 55.6875 12.9297C55.7656 12.8906 55.8359 12.8711 55.8984 12.8711C56.0391 12.8711 56.1602 12.9297 56.2617 13.0469L56.8477 13.6562C56.9336 13.7578 56.9766 13.8555 56.9766 13.9492C56.9766 14.0352 56.9453 14.1211 56.8828 14.207C56.8281 14.293 56.7344 14.3867 56.6016 14.4883L52.9336 17.1953C53.582 17.2188 54.1289 17.3047 54.5742 17.4531C55.0195 17.5938 55.3789 17.8008 55.6523 18.0742C55.9258 18.3477 56.1211 18.6875 56.2383 19.0938C56.3633 19.5 56.4258 19.9727 56.4258 20.5117V24.4492C56.4258 24.582 56.4062 24.6875 56.3672 24.7656C56.3359 24.8359 56.293 24.8906 56.2383 24.9297C56.1914 24.9609 56.1328 24.9805 56.0625 24.9883C55.9922 24.9961 55.9219 25 55.8516 25H55.1016C54.8984 25 54.7656 24.9414 54.7031 24.8242C54.6484 24.707 54.6211 24.582 54.6211 24.4492V20.3945C54.6211 20.0352 54.5859 19.7383 54.5156 19.5039C54.4531 19.2617 54.3438 19.0703 54.1875 18.9297C54.0312 18.7812 53.8242 18.6758 53.5664 18.6133C53.3164 18.543 53.0039 18.5 52.6289 18.4844V23.3945C52.6289 23.6602 52.6016 23.8945 52.5469 24.0977C52.5 24.293 52.4062 24.4609 52.2656 24.6016C52.125 24.7344 51.9297 24.8359 51.6797 24.9062C51.4297 24.9688 51.1094 25 50.7188 25H45.7969C45.4219 25 45.1172 24.9648 44.8828 24.8945C44.6484 24.8242 44.4648 24.7227 44.332 24.5898C44.1992 24.457 44.1094 24.2891 44.0625 24.0859C44.0156 23.8828 43.9922 23.6445 43.9922 23.3711V7.43359ZM51.6328 7.53906C51.6328 7.36719 51.6211 7.23047 51.5977 7.12891C51.5742 7.02734 51.5273 6.95312 51.457 6.90625C51.3867 6.85156 51.293 6.82031 51.1758 6.8125C51.0586 6.79688 50.9062 6.78906 50.7188 6.78906V24.0156C50.9062 24.0156 51.0586 24.0117 51.1758 24.0039C51.293 23.9883 51.3867 23.957 51.457 23.9102C51.5273 23.8555 51.5742 23.7812 51.5977 23.6875C51.6211 23.5859 51.6328 23.4453 51.6328 23.2656V7.53906ZM58.2656 14.6289C58.2656 14.3633 58.2891 14.1289 58.3359 13.9258C58.3828 13.7148 58.4727 13.543 58.6055 13.4102C58.7383 13.2773 58.9219 13.1758 59.1562 13.1055C59.3906 13.0352 59.6953 13 60.0703 13H65.2031C65.5625 13 65.8516 13.0352 66.0703 13.1055C66.2969 13.168 66.4727 13.2656 66.5977 13.3984C66.7227 13.5312 66.8047 13.6992 66.8438 13.9023C66.8828 14.1055 66.9023 14.3477 66.9023 14.6289V23.3945C66.9023 23.6602 66.8828 23.8945 66.8438 24.0977C66.8047 24.293 66.7227 24.4609 66.5977 24.6016C66.4727 24.7344 66.2969 24.8359 66.0703 24.9062C65.8516 24.9688 65.5625 25 65.2031 25H60.0703C59.6953 25 59.3906 24.9648 59.1562 24.8945C58.9219 24.8242 58.7383 24.7227 58.6055 24.5898C58.4727 24.457 58.3828 24.2891 58.3359 24.0859C58.2891 23.8828 58.2656 23.6445 58.2656 23.3711V14.6289ZM58.6992 7.98438C58.6992 7.44531 58.8008 6.9375 59.0039 6.46094C59.2148 5.98437 59.4961 5.57031 59.8477 5.21875C60.1992 4.86719 60.6133 4.58984 61.0898 4.38672C61.5664 4.17578 62.0742 4.07031 62.6133 4.07031C63.1445 4.07031 63.6445 4.17578 64.1133 4.38672C64.5898 4.58984 65.0039 4.86719 65.3555 5.21875C65.707 5.57031 65.9844 5.98437 66.1875 6.46094C66.3984 6.9375 66.5039 7.44531 66.5039 7.98438C66.5039 8.51562 66.3984 9.01953 66.1875 9.49609C65.9844 9.96484 65.707 10.375 65.3555 10.7266C65.0039 11.0781 64.5898 11.3594 64.1133 11.5703C63.6445 11.7734 63.1445 11.875 62.6133 11.875C62.0742 11.875 61.5664 11.7734 61.0898 11.5703C60.6133 11.3594 60.1992 11.0781 59.8477 10.7266C59.4961 10.375 59.2148 9.96484 59.0039 9.49609C58.8008 9.01953 58.6992 8.51562 58.6992 7.98438ZM65.9062 14.7344C65.9062 14.5625 65.8945 14.4258 65.8711 14.3242C65.8477 14.2227 65.8008 14.1484 65.7305 14.1016C65.6602 14.0469 65.5664 14.0156 65.4492 14.0078C65.332 13.9922 65.1797 13.9844 64.9922 13.9844V24.0156C65.1797 24.0156 65.332 24.0117 65.4492 24.0039C65.5664 23.9883 65.6602 23.957 65.7305 23.9102C65.8008 23.8555 65.8477 23.7812 65.8711 23.6875C65.8945 23.5859 65.9062 23.4453 65.9062 23.2656V14.7344ZM64.5469 7.98438C64.5469 8.53125 64.4375 9.04688 64.2188 9.53125C64.0078 10.0156 63.7188 10.4375 63.3516 10.7969C63.6641 10.7188 63.9492 10.5898 64.207 10.4102C64.4727 10.2305 64.6992 10.0195 64.8867 9.77734C65.082 9.52734 65.2344 9.25 65.3438 8.94531C65.4531 8.64062 65.5078 8.32031 65.5078 7.98438C65.5078 7.64844 65.4531 7.32812 65.3438 7.02344C65.2344 6.71875 65.082 6.44531 64.8867 6.20312C64.6992 5.95313 64.4727 5.74219 64.207 5.57031C63.9492 5.39063 63.6641 5.25781 63.3516 5.17188C63.7188 5.53125 64.0078 5.95313 64.2188 6.4375C64.4375 6.92187 64.5469 7.4375 64.5469 7.98438ZM78.2227 20.125V23.3594C78.2227 23.6406 78.2031 23.8867 78.1641 24.0977C78.125 24.3008 78.043 24.4688 77.918 24.6016C77.793 24.7344 77.6133 24.8359 77.3789 24.9062C77.1523 24.9688 76.8477 25 76.4648 25H71.3789C71.0039 25 70.6992 24.9648 70.4648 24.8945C70.2305 24.8242 70.0469 24.7227 69.9141 24.5898C69.7812 24.457 69.6914 24.2891 69.6445 24.0859C69.5977 23.8828 69.5742 23.6445 69.5742 23.3711V20.125H68.6016C68.4375 20.125 68.3555 20.0391 68.3555 19.8672V18.9297C68.3555 18.7656 68.4375 18.6836 68.6016 18.6836H69.5742V11.6055C69.5742 10.7617 69.6602 10.0273 69.832 9.40234C70.0117 8.77734 70.25 8.24219 70.5469 7.79688C70.8516 7.34375 71.207 6.97266 71.6133 6.68359C72.0195 6.39453 72.457 6.16797 72.9258 6.00391C73.3945 5.83203 73.8789 5.71484 74.3789 5.65234C74.8867 5.58984 75.3906 5.55859 75.8906 5.55859C76.3203 5.55859 76.7695 5.58594 77.2383 5.64062C77.7148 5.69531 78.1719 5.76953 78.6094 5.86328C79.0547 5.94922 79.4688 6.05469 79.8516 6.17969C80.2344 6.29688 80.5586 6.41797 80.8242 6.54297C80.8867 6.57422 80.9531 6.62109 81.0234 6.68359C81.0938 6.74609 81.1289 6.85547 81.1289 7.01172V7.83203C81.1289 7.93359 81.1094 7.99609 81.0703 8.01953C81.0312 8.03516 80.9961 8.04297 80.9648 8.04297C80.8633 8.04297 80.7539 8.01953 80.6367 7.97266C80.5195 7.92578 80.3438 7.90234 80.1094 7.90234C79.8516 7.90234 79.6055 7.95703 79.3711 8.06641C79.1445 8.16797 78.9453 8.35156 78.7734 8.61719C78.6016 8.88281 78.4648 9.24219 78.3633 9.69531C78.2695 10.1484 78.2227 10.7188 78.2227 11.4062V18.6836H80.5664C80.7305 18.6836 80.8125 18.7656 80.8125 18.9297V19.8672C80.8125 20.0391 80.7305 20.125 80.5664 20.125H78.2227ZM76.3125 24.0156C76.5 24.0156 76.6523 24.0117 76.7695 24.0039C76.8867 23.9883 76.9805 23.957 77.0508 23.9102C77.1211 23.8555 77.168 23.7812 77.1914 23.6875C77.2148 23.5859 77.2266 23.4453 77.2266 23.2656V10.9375C77.2266 10.25 77.2852 9.69141 77.4023 9.26172C77.5195 8.82422 77.668 8.47656 77.8477 8.21875C78.0273 7.95312 78.2305 7.75781 78.457 7.63281C78.6836 7.5 78.9023 7.39453 79.1133 7.31641C78.832 7.30859 78.5273 7.36719 78.1992 7.49219C77.8711 7.60938 77.5664 7.80859 77.2852 8.08984C77.0039 8.37109 76.7695 8.74609 76.582 9.21484C76.4023 9.67578 76.3125 10.25 76.3125 10.9375V24.0156ZM90.1875 17.9805L91.8281 13.6914C91.8672 13.5898 91.9023 13.5 91.9336 13.4219C91.9648 13.3359 92.0039 13.2617 92.0508 13.1992C92.0977 13.1367 92.1602 13.0898 92.2383 13.0586C92.3164 13.0195 92.418 13 92.543 13H93.9141C94.1328 13 94.2422 13.0625 94.2422 13.1875C94.2422 13.2891 94.2031 13.4336 94.125 13.6211L87.5039 29.2422C87.457 29.3438 87.418 29.4297 87.3867 29.5C87.3555 29.5781 87.3164 29.6406 87.2695 29.6875C87.2305 29.7344 87.1797 29.7695 87.1172 29.793C87.0547 29.8164 86.9688 29.8281 86.8594 29.8281H85.3477C85.1133 29.8281 84.9961 29.7578 84.9961 29.6172C84.9961 29.5234 85.043 29.3828 85.1367 29.1953L86.707 25.8203L80.9062 13.9844C80.8281 13.8125 80.7891 13.6641 80.7891 13.5391C80.7891 13.3438 80.8633 13.207 81.0117 13.1289C81.168 13.043 81.3242 13 81.4805 13H87.4219C87.7031 13 87.918 13.0586 88.0664 13.1758C88.2227 13.2852 88.3242 13.3945 88.3711 13.5039L90.1875 17.9805ZM87.668 14.3477C87.5664 14.1055 87.3945 13.9844 87.1523 13.9844H86.5898L89.2031 20.5117L89.6602 19.3281L87.668 14.3477Z" fill="black"/>
</g>
<defs>
<clipPath id="clip0_5_2">
<rect width="96" height="28" fill="white"/>
</clipPath>
</defs>
</svg>
