<svg width="62" height="62" viewBox="0 0 62 62" fill="none" xmlns="http://www.w3.org/2000/svg">
<g opacity="0.99" filter="url(#filter0_g_2_8)">
<mask id="path-1-inside-1_2_8" fill="white">
<path d="M55.6202 35.3412C54.5237 41.5599 51.1145 47.1332 46.0776 50.9416C41.0407 54.7499 34.7492 56.5112 28.4671 55.8714C22.185 55.2316 16.3777 52.2383 12.2119 47.4927C8.04615 42.7471 5.83051 36.6009 6.01013 30.2889C6.18975 23.9769 8.75132 17.9666 13.1802 13.4656C17.6091 8.96463 23.5772 6.30637 29.8856 6.02488C36.1939 5.74338 42.375 7.85951 47.1872 11.9481C51.9994 16.0368 55.0861 21.795 55.8272 28.0659L47.8577 29.0078C47.3545 24.7498 45.2586 20.84 41.9911 18.0638C38.7236 15.2876 34.5266 13.8508 30.2433 14.0419C25.9599 14.233 21.9076 16.038 18.9004 19.0942C15.8931 22.1503 14.1538 26.2313 14.0319 30.5172C13.9099 34.803 15.4143 38.9763 18.2429 42.1985C21.0715 45.4208 25.0146 47.4533 29.2802 47.8877C33.5457 48.3221 37.8176 47.1262 41.2377 44.5404C44.6578 41.9545 46.9726 38.1702 47.7171 33.9477L55.6202 35.3412Z"/>
</mask>
<path d="M55.6202 35.3412C54.5237 41.5599 51.1145 47.1332 46.0776 50.9416C41.0407 54.7499 34.7492 56.5112 28.4671 55.8714C22.185 55.2316 16.3777 52.2383 12.2119 47.4927C8.04615 42.7471 5.83051 36.6009 6.01013 30.2889C6.18975 23.9769 8.75132 17.9666 13.1802 13.4656C17.6091 8.96463 23.5772 6.30637 29.8856 6.02488C36.1939 5.74338 42.375 7.85951 47.1872 11.9481C51.9994 16.0368 55.0861 21.795 55.8272 28.0659L47.8577 29.0078C47.3545 24.7498 45.2586 20.84 41.9911 18.0638C38.7236 15.2876 34.5266 13.8508 30.2433 14.0419C25.9599 14.233 21.9076 16.038 18.9004 19.0942C15.8931 22.1503 14.1538 26.2313 14.0319 30.5172C13.9099 34.803 15.4143 38.9763 18.2429 42.1985C21.0715 45.4208 25.0146 47.4533 29.2802 47.8877C33.5457 48.3221 37.8176 47.1262 41.2377 44.5404C44.6578 41.9545 46.9726 38.1702 47.7171 33.9477L55.6202 35.3412Z" stroke="#040000" stroke-width="18" stroke-linecap="round" mask="url(#path-1-inside-1_2_8)"/>
</g>
<defs>
<filter id="filter0_g_2_8" x="0" y="0" width="61.8272" height="62.0001" filterUnits="userSpaceOnUse" color-interpolation-filters="sRGB">
<feFlood flood-opacity="0" result="BackgroundImageFix"/>
<feBlend mode="normal" in="SourceGraphic" in2="BackgroundImageFix" result="shape"/>
<feTurbulence type="fractalNoise" baseFrequency="0.1428571492433548 0.1428571492433548" numOctaves="3" seed="4909" />
<feDisplacementMap in="shape" scale="12" xChannelSelector="R" yChannelSelector="G" result="displacedImage" width="100%" height="100%" />
<feMerge result="effect1_texture_2_8">
<feMergeNode in="displacedImage"/>
</feMerge>
</filter>
</defs>
</svg>
